HIERARCHY
ROOT joint_Root
{
	OFFSET 0.0 0.0 0.0
	CHANNELS 6 Xposition Yposition Zposition Zrotation Xrotation Yrotation 
	JOINT Hips
	{
		OFFSET 4.5925 91.4895 -427.239
		CHANNELS 6 Xposition Yposition Zposition Zrotation Xrotation Yrotation 
		JOINT Spine
		{
			OFFSET 15.7357 0.0 0.0
			CHANNELS 6 Xposition Yposition Zposition Zrotation Xrotation Yrotation 
			JOINT Chest
			{
				OFFSET 8.98455 -0.406207 0.0
				CHANNELS 6 Xposition Yposition Zposition Zrotation Xrotation Yrotation 
				JOINT Neck
				{
					OFFSET 16.3773 0.0 0.0
					CHANNELS 6 Xposition Yposition Zposition Zrotation Xrotation Yrotation 
					JOINT Head
					{
						OFFSET 6.45672 0.0 0.0
						CHANNELS 6 Xposition Yposition Zposition Zrotation Xrotation Yrotation 
						End Site
						{
							OFFSET 0.0 0.0 0.0
						}
					}
				}
				JOINT Shoulder_L
				{
					OFFSET 12.9942 -0.242716 4.98039
					CHANNELS 6 Xposition Yposition Zposition Zrotation Xrotation Yrotation 
					JOINT UpperArm_L
					{
						OFFSET 5.34809 0.0 0.0
						CHANNELS 6 Xposition Yposition Zposition Zrotation Xrotation Yrotation 
						JOINT LowerArm_L
						{
							OFFSET 24.3286 1.87007e-05 0.0
							CHANNELS 6 Xposition Yposition Zposition Zrotation Xrotation Yrotation 
							JOINT Hand_L
							{
								OFFSET 22.2916 0.0 0.0
								CHANNELS 6 Xposition Yposition Zposition Zrotation Xrotation Yrotation 
								End Site
								{
									OFFSET 0.0 0.0 0.0
								}
							}
						}
					}
				}
				JOINT Shoulder_R
				{
					OFFSET 12.9945 -0.242716 -4.98039
					CHANNELS 6 Xposition Yposition Zposition Zrotation Xrotation Yrotation 
					JOINT UpperArm_R
					{
						OFFSET -5.34813 0.0 0.0
						CHANNELS 6 Xposition Yposition Zposition Zrotation Xrotation Yrotation 
						JOINT LowerArm_R
						{
							OFFSET -24.3289 0.000322201 0.0
							CHANNELS 6 Xposition Yposition Zposition Zrotation Xrotation Yrotation 
							JOINT Hand_R
							{
								OFFSET -22.2915 -0.000108084 0.0
								CHANNELS 6 Xposition Yposition Zposition Zrotation Xrotation Yrotation 
								End Site
								{
									OFFSET 0.0 0.0 0.0
								}
							}
						}
					}
				}
			}
		}
		JOINT UpperLeg_L
		{
			OFFSET -2.19248 -6.46944 0.0
			CHANNELS 6 Xposition Yposition Zposition Zrotation Xrotation Yrotation 
			JOINT LowerLeg_L
			{
				OFFSET 39.0811 0.0 -1.23785e-05
				CHANNELS 6 Xposition Yposition Zposition Zrotation Xrotation Yrotation 
				JOINT Foot_L
				{
					OFFSET 40.9854 0.0 -1.26872e-05
					CHANNELS 6 Xposition Yposition Zposition Zrotation Xrotation Yrotation 
					JOINT Toes_L
					{
						OFFSET 11.7543 0.0 0.0
						CHANNELS 6 Xposition Yposition Zposition Zrotation Xrotation Yrotation 
						End Site
						{
							OFFSET 0.0 0.0 0.0
						}
					}
				}
			}
		}
		JOINT UpperLeg_R
		{
			OFFSET -2.19251 6.46944 0.0
			CHANNELS 6 Xposition Yposition Zposition Zrotation Xrotation Yrotation 
			JOINT LowerLeg_R
			{
				OFFSET -39.0811 -0.00228153 -0.0401928
				CHANNELS 6 Xposition Yposition Zposition Zrotation Xrotation Yrotation 
				JOINT Foot_R
				{
					OFFSET -40.9854 0.0 0.0
					CHANNELS 6 Xposition Yposition Zposition Zrotation Xrotation Yrotation 
					JOINT Toes_R
					{
						OFFSET -11.7543 0.0 0.0
						CHANNELS 6 Xposition Yposition Zposition Zrotation Xrotation Yrotation 
						End Site
						{
							OFFSET 0.0 0.0 0.0
						}
					}
				}
			}
		}
	}
}
MOTION
Frames:	6
Frame Time:	0.0333333
0.000000 0.000000 0.000000 0.000000 0.000000 -0.000000 -9.803110 89.867500 1.048820 84.711400 -1.920700 11.423000 15.735700 0.000005 -0.000001 84.501500 81.556500 -81.785800 8.984550 -0.406207 -0.000000 9.089220 -1.578050 5.552500 16.377300 -0.000001 -0.000001 7.374310 -2.525440 2.796010 6.456720 -0.000001 -0.000000 1.609620 -1.679850 9.274430 12.994200 -0.242716 4.980390 -91.348500 4.891420 -74.566500 5.348090 -0.000007 -0.000001 -64.754500 33.736700 -13.487800 24.328600 0.000019 0.000005 10.216100 25.784100 -22.504900 22.291600 -0.000001 0.000005 8.342070 5.284170 0.511832 12.994500 -0.242716 -4.980390 88.190800 12.465300 -81.674500 -5.348130 -0.000001 -0.000004 -59.639700 26.981400 -8.960810 -24.328900 0.000322 -0.000009 2.233680 7.252260 -17.177500 -22.291500 -0.000108 -0.000004 13.823900 5.365330 -1.842710 -2.192480 -6.469440 -0.000000 -163.085000 -9.962490 0.475070 39.081100 -0.000007 -0.000012 -0.300203 0.445390 33.981500 40.985400 -0.000006 -0.000013 -5.326250 8.629860 -71.528700 11.754300 -0.000000 0.000003 -0.000086 -0.000900 -16.612200 -2.192510 6.469440 -0.000001 -177.918000 27.631800 -173.979000 -39.081100 -0.002282 -0.040193 -0.182183 0.340598 28.572800 -40.985400 0.000008 0.000006 10.362900 15.305900 -74.336500 -11.754300 -0.000006 -0.000006 -0.001238 -0.018729 -17.334700
0.000000 0.000000 0.000000 0.000000 0.000000 -0.000000 -9.853190 89.853000 1.030480 84.718100 -1.846600 11.586900 15.735700 0.000005 -0.000001 84.329400 81.568100 -81.637700 8.984550 -0.406207 -0.000000 9.062120 -1.626950 5.508100 16.377300 -0.000001 -0.000001 7.639140 -2.469330 2.798110 6.456720 -0.000001 -0.000000 1.720920 -1.635130 9.203380 12.994200 -0.242716 4.980390 -91.349500 4.864710 -74.474800 5.348090 -0.000007 -0.000001 -64.395200 33.394500 -14.148300 24.328600 0.000019 0.000005 10.650300 25.848200 -23.331600 22.291600 -0.000001 0.000005 8.138210 5.296200 0.178653 12.994500 -0.242716 -4.980390 88.228100 12.307000 -81.742000 -5.348130 -0.000001 -0.000004 -59.410800 26.980200 -9.431310 -24.328900 0.000322 -0.000009 2.289600 7.199150 -17.702700 -22.291500 -0.000108 -0.000004 13.804900 5.371040 -2.018770 -2.192480 -6.469440 -0.000000 -163.053000 -9.863320 0.573012 39.081100 -0.000007 -0.000012 -0.294584 0.436246 34.030600 40.985400 -0.000006 -0.000013 -5.345060 8.659280 -71.528300 11.754300 -0.000000 0.000003 -0.000089 -0.000935 -16.613500 -2.192510 6.469440 -0.000001 -177.980000 27.717100 -173.826000 -39.081100 -0.002282 -0.040193 -0.179161 0.334370 28.621500 -40.985400 0.000008 0.000006 10.399400 15.265600 -74.372300 -11.754300 -0.000006 -0.000006 -0.001040 -0.015980 -17.223000
0.000000 0.000000 0.000000 0.000000 0.000000 -0.000000 -9.908210 89.839300 1.019670 84.756700 -1.713900 11.727500 15.735700 0.000005 -0.000001 84.310500 81.579000 -81.650200 8.984550 -0.406207 -0.000000 9.039310 -1.631230 5.445260 16.377300 -0.000001 -0.000001 7.820310 -2.475360 2.790670 6.456720 -0.000001 -0.000000 1.866350 -1.693570 9.140940 12.994200 -0.242716 4.980390 -91.345100 4.848310 -74.473500 5.348090 -0.000007 -0.000001 -63.371800 33.637400 -15.367700 24.328600 0.000019 0.000005 11.067400 25.816000 -24.187500 22.291600 -0.000001 0.000005 7.948700 5.303660 -0.030253 12.994500 -0.242716 -4.980390 88.241600 12.138000 -81.693300 -5.348130 -0.000001 -0.000004 -58.913900 27.123500 -10.155500 -24.328900 0.000322 -0.000009 2.291030 6.951020 -18.300800 -22.291500 -0.000108 -0.000004 13.753200 5.374370 -2.122410 -2.192480 -6.469440 -0.000000 -163.049000 -9.730850 0.654014 39.081100 -0.000007 -0.000012 -0.299370 0.443167 34.040500 40.985400 -0.000006 -0.000013 -5.382720 8.682020 -71.506300 11.754300 -0.000000 0.000003 -0.000083 -0.000879 -16.611400 -2.192510 6.469440 -0.000001 -178.060000 27.792500 -173.707000 -39.081100 -0.002282 -0.040193 -0.182195 0.339060 28.683200 -40.985400 0.000008 0.000006 10.437900 15.218100 -74.417800 -11.754300 -0.000006 -0.000006 -0.000993 -0.015314 -17.195900
0.000000 0.000000 0.000000 0.000000 0.000000 -0.000000 -9.964560 89.833700 1.001470 84.807200 -1.627390 11.830100 15.735700 0.000005 -0.000001 84.257900 81.614600 -81.644700 8.984550 -0.406207 -0.000000 8.966410 -1.641760 5.350950 16.377300 -0.000001 -0.000001 8.060200 -2.480800 2.787750 6.456720 -0.000001 -0.000000 1.913450 -1.727420 9.111190 12.994200 -0.242716 4.980390 -91.313300 4.715960 -74.419800 5.348090 -0.000007 -0.000001 -62.093100 33.805300 -16.871900 24.328600 0.000019 0.000005 11.702800 26.244500 -25.099800 22.291600 -0.000001 0.000005 7.525920 5.306370 -0.106868 12.994500 -0.242716 -4.980390 88.258200 11.956000 -81.649000 -5.348130 -0.000001 -0.000004 -58.312900 27.086800 -11.054800 -24.328900 0.000322 -0.000009 2.398070 7.082220 -18.768600 -22.291500 -0.000108 -0.000004 13.673200 5.376270 -2.181610 -2.192480 -6.469440 -0.000000 -163.042000 -9.705910 0.722569 39.081100 -0.000007 -0.000012 -0.294550 0.436431 34.016200 40.985400 -0.000006 -0.000013 -5.389270 8.804820 -71.455400 11.754300 -0.000000 0.000003 -0.000082 -0.000872 -16.611200 -2.192510 6.469440 -0.000001 -178.122000 27.849900 -173.613000 -39.081100 -0.002282 -0.040193 -0.180733 0.336075 28.705700 -40.985400 0.000008 0.000006 10.463600 15.146600 -74.439200 -11.754300 -0.000006 -0.000006 -0.001072 -0.016420 -17.240900
0.000000 0.000000 0.000000 0.000000 0.000000 -0.000000 -10.027200 89.824000 0.929520 84.829400 -1.472160 11.850600 15.735700 0.000005 -0.000001 83.970400 81.686000 -81.390900 8.984550 -0.406207 -0.000000 8.816830 -1.714100 5.286980 16.377300 -0.000001 -0.000001 8.312410 -2.490620 2.758720 6.456720 -0.000001 -0.000000 1.995660 -1.831910 9.078210 12.994200 -0.242716 4.980390 -91.288900 4.614520 -74.375700 5.348090 -0.000007 -0.000001 -60.534800 33.864200 -18.528700 24.328600 0.000019 0.000005 12.108000 26.289000 -25.844200 22.291600 -0.000001 0.000005 7.376830 5.305920 -0.094227 12.994500 -0.242716 -4.980390 88.290200 11.723800 -81.642900 -5.348130 -0.000001 -0.000004 -57.598000 26.988800 -12.060600 -24.328900 0.000322 -0.000009 2.403350 6.928430 -19.192200 -22.291500 -0.000108 -0.000004 13.733200 5.376990 -2.203890 -2.192480 -6.469440 -0.000000 -163.051000 -9.604570 0.615296 39.081100 -0.000007 -0.000012 -0.297635 0.440384 34.053500 40.985400 -0.000006 -0.000013 -5.416110 8.849800 -71.395000 11.754300 -0.000000 0.000003 -0.000087 -0.000912 -16.612600 -2.192510 6.469440 -0.000001 -178.071000 27.900700 -173.699000 -39.081100 -0.002282 -0.040193 -0.182586 0.338485 28.775200 -40.985400 0.000008 0.000006 10.491500 15.016900 -74.432800 -11.754300 -0.000006 -0.000006 -0.001081 -0.016547 -17.246000
0.000000 0.000000 0.000000 0.000000 0.000000 -0.000000 -10.095300 89.833300 0.881883 84.895700 -1.298690 11.962300 15.735700 0.000005 -0.000001 83.803400 81.724500 -81.278200 8.984550 -0.406207 -0.000000 8.735140 -1.756210 5.180480 16.377300 -0.000001 -0.000001 8.489190 -2.588860 2.812510 6.456720 -0.000001 -0.000000 2.027690 -1.960520 8.970000 12.994200 -0.242716 4.980390 -91.235800 4.444850 -74.445800 5.348090 -0.000007 -0.000001 -58.984800 33.351400 -20.284400 24.328600 0.000019 0.000005 12.468400 26.390100 -26.448800 22.291600 -0.000001 0.000005 6.990250 5.306690 -0.116231 12.994500 -0.242716 -4.980390 88.309900 11.518400 -81.594500 -5.348130 -0.000001 -0.000004 -56.718900 26.710300 -13.242900 -24.328900 0.000322 -0.000009 2.399200 6.806440 -19.477800 -22.291500 -0.000108 -0.000004 13.669500 5.378060 -2.237720 -2.192480 -6.469440 -0.000000 -163.070000 -9.518290 0.687136 39.081100 -0.000007 -0.000012 -0.298364 0.443145 33.952500 40.985400 -0.000006 -0.000013 -5.432040 8.972850 -71.282600 11.754300 -0.000000 0.000003 -0.000091 -0.000950 -16.614100 -2.192510 6.469440 -0.000001 -178.165000 28.067300 -173.572000 -39.081100 -0.002282 -0.040193 -0.178186 0.331146 28.725900 -40.985400 0.000008 0.000006 10.533400 14.994600 -74.416700 -11.754300 -0.000006 -0.000006 -0.001116 -0.017039 -17.266000
